<svg width="146" height="146" viewBox="0 0 146 146" fill="none" xmlns="http://www.w3.org/2000/svg">
<path d="M73.1888 145.5C69.2634 145.5 66.4891 142.095 63.8043 138.803C62.2315 136.873 60.2729 134.471 58.8988 134.166C57.4058 133.828 54.6185 135.147 52.1551 136.305C48.347 138.094 44.4085 139.941 40.9879 138.331C37.5102 136.692 36.5333 132.485 35.5874 128.417C34.9899 125.848 34.3142 122.936 33.1713 122.043C32.0218 121.148 28.9805 121.141 26.2843 121.141C26.254 121.144 26.2235 121.144 26.1932 121.141C21.9534 121.141 17.5755 121.132 15.1871 118.211C12.8019 115.291 13.7722 111.111 14.7117 107.07C15.3141 104.478 15.9962 101.541 15.345 100.222C14.7198 98.9543 11.983 97.6704 9.56845 96.536C5.7033 94.7206 1.70789 92.8432 0.843351 89.1345C0.00975077 85.5468 2.71569 82.2294 5.3337 79.0203C7.05293 76.9122 9.00185 74.5241 9.00185 72.9999C9.00185 71.4758 7.05299 69.0876 5.3337 66.9795C2.71567 63.772 0.00981021 60.4547 0.843351 56.8701C1.70625 53.1599 5.70328 51.2824 9.56845 49.4671C11.9829 48.3326 14.7198 47.0471 15.345 45.7806C15.9963 44.4616 15.3124 41.5246 14.71 38.9327C13.7706 34.8915 12.8003 30.7135 15.1838 27.7955C17.5804 24.8617 21.978 24.8617 26.2323 24.8617C28.9414 24.8601 32.0105 24.8601 33.1664 23.958C34.311 23.0654 34.9866 20.1538 35.5842 17.5843C36.5301 13.5161 37.507 9.30939 40.9863 7.67062C44.402 6.05572 48.3421 7.90455 52.1503 9.69441C54.6152 10.8527 57.3977 12.1732 58.8972 11.8343C60.2713 11.5305 62.23 9.128 63.8027 7.19649C66.4875 3.90479 69.2634 0.5 73.1888 0.5C77.1159 0.5 79.8902 3.90479 82.5749 7.19823C84.1478 9.12814 86.1047 11.529 87.4788 11.8345C88.9751 12.1702 91.7608 10.8512 94.2225 9.69455C98.0274 7.90304 101.964 6.05108 105.39 7.66917C108.867 9.30792 109.846 13.5146 110.79 17.5845C111.388 20.1524 112.065 23.0655 113.208 23.9565C114.356 24.8523 117.397 24.8586 120.093 24.8586C120.124 24.8571 120.155 24.8602 120.184 24.8586C124.426 24.8586 128.804 24.8682 131.191 27.7909C133.576 30.7089 132.605 34.8885 131.666 38.9297C131.065 41.5215 130.381 44.4585 131.033 45.7791C131.658 47.0439 134.395 48.3295 136.809 49.4639C140.674 51.2793 144.671 53.1567 145.534 56.867C146.368 60.4531 143.662 63.7704 141.044 66.9795C139.325 69.0876 137.376 71.4774 137.376 72.9999C137.376 74.5241 139.325 76.9123 141.046 79.0203C143.662 82.2278 146.369 85.5435 145.536 89.1297C144.671 92.84 140.676 94.7174 136.811 96.5328C134.396 97.6672 131.659 98.9527 131.034 100.219C130.385 101.538 131.067 104.475 131.669 107.067C132.609 111.108 133.579 115.286 131.194 118.206C128.799 121.138 124.4 121.138 120.145 121.138C117.438 121.14 114.367 121.14 113.211 122.042C112.068 122.933 111.393 125.844 110.795 128.414C109.849 132.482 108.872 136.69 105.391 138.331C101.971 139.935 98.0339 138.094 94.2273 136.305C91.7624 135.147 88.9506 133.822 87.482 134.165C86.1063 134.469 84.1477 136.873 82.5733 138.803C79.8901 142.095 77.1142 145.5 73.1888 145.5ZM59.6846 123.646C60.1663 123.645 60.6467 123.696 61.1168 123.8C63.8735 124.417 65.9753 127.016 68.0086 129.528C69.585 131.475 71.547 133.9 72.9006 133.9C74.2557 133.9 76.2177 131.475 77.794 129.528C79.8274 127.014 81.9291 124.416 84.6873 123.8C87.5372 123.158 90.6432 124.629 93.6459 126.052C95.867 127.104 98.6368 128.413 99.746 127.88C100.918 127.324 101.606 124.337 102.159 121.937C102.89 118.771 103.645 115.498 105.888 113.734C108.146 111.958 111.569 111.958 114.879 111.957C117.366 111.957 120.462 111.957 121.261 110.971C122.052 109.998 121.369 107.037 120.82 104.66C120.085 101.472 119.325 98.1777 120.587 95.6039C121.826 93.076 124.883 91.6286 127.84 90.2285C130.105 89.1565 132.924 87.8223 133.217 86.5526C133.486 85.389 131.59 83.0473 130.067 81.1671C127.974 78.5833 125.811 75.912 125.811 73C125.811 70.0879 127.974 67.4167 130.066 64.8328C131.59 62.9512 133.485 60.6095 133.215 59.4444C132.923 58.1747 130.104 56.8405 127.839 55.7686C124.881 54.3685 121.825 52.9211 120.586 50.3946C119.324 47.8194 120.084 44.5247 120.817 41.3376C121.366 38.9601 122.049 35.9994 121.26 35.0249C120.456 34.0346 117.422 34.0461 114.835 34.0404C111.538 34.0404 108.134 34.0332 105.887 32.2648C103.642 30.5008 102.887 27.2261 102.156 24.0604C101.602 21.6615 100.913 18.6749 99.7446 18.1189C98.6209 17.5901 95.8642 18.8928 93.6431 19.9461C90.6389 21.3677 87.5416 22.8337 84.6845 22.2003C81.9277 21.5827 79.826 18.9845 77.7941 16.4723C76.2178 14.5248 74.2558 12.1 72.9007 12.1C71.5456 12.1 69.5836 14.5248 68.0073 16.4737C65.9739 18.9859 63.8722 21.5841 61.1155 22.2003C58.2729 22.8366 55.1581 21.3691 52.1554 19.9475C49.9357 18.8957 47.1673 17.5872 46.0553 18.1203C44.885 18.6764 44.1966 21.6615 43.6435 24.0604C42.9128 27.2275 42.1574 30.5021 39.9116 32.2662C37.6556 34.0418 34.2322 34.0418 30.9223 34.0432C28.4349 34.0432 25.339 34.0432 24.5385 35.0292C23.751 36.0022 24.4337 38.9615 24.9824 41.339C25.7174 44.5261 26.4772 47.8208 25.2153 50.396C23.9766 52.924 20.9201 54.3713 17.9625 55.7715C15.6977 56.8434 12.8784 58.1776 12.5858 59.4458C12.3165 60.6109 14.2116 62.9526 15.7355 64.8327C17.8272 67.4167 19.99 70.088 19.99 73C19.99 75.912 17.8272 78.5833 15.7356 81.1672C14.2131 83.0488 12.3166 85.3904 12.5859 86.557C12.8784 87.8252 15.6978 89.1594 17.9626 90.2313C20.9202 91.6314 23.9782 93.0788 25.2168 95.6068C26.4788 98.1806 25.719 101.477 24.984 104.662C24.4352 107.041 23.7526 110.001 24.5415 110.975C25.3464 111.965 28.5136 112.01 30.9661 111.96C34.2628 111.96 37.6672 111.967 39.9145 113.735C42.1604 115.499 42.9158 118.774 43.6464 121.941C44.1995 124.34 44.888 127.325 46.0567 127.881C47.1818 128.407 49.9385 127.104 52.1596 126.054C54.4649 124.732 57.0306 123.911 59.6846 123.646Z" fill="#F038FF"/>
<path d="M73.1889 140.667C69.5252 140.667 66.9358 137.489 64.4301 134.416C62.9621 132.615 61.134 130.373 59.8516 130.088C58.4581 129.773 55.8566 131.004 53.5575 132.085C50.0032 133.754 46.3273 135.478 43.1347 133.975C39.8889 132.446 38.9771 128.52 38.0942 124.723C37.5366 122.324 36.9059 119.607 35.8392 118.774C34.7664 117.938 31.9278 117.932 29.4114 117.932C29.3831 117.934 29.3546 117.934 29.3263 117.932C25.3692 117.932 21.2832 117.923 19.054 115.197C16.8278 112.472 17.7334 108.571 18.6102 104.799C19.1725 102.38 19.8092 99.6386 19.2014 98.4075C18.6179 97.224 16.0634 96.0256 13.8099 94.9668C10.2024 93.2724 6.47338 91.5202 5.66647 88.0588C4.88845 84.7102 7.41399 81.6141 9.85746 78.6189C11.4621 76.6513 13.2811 74.4224 13.2811 72.9999C13.2811 71.5773 11.4621 69.3483 9.85746 67.3808C7.41397 64.3871 4.8885 61.291 5.66647 57.9454C6.47185 54.4825 10.2024 52.7302 13.8099 51.0359C16.0634 49.977 18.6179 48.7773 19.2014 47.5951C19.8092 46.3641 19.171 43.6229 18.6087 41.2038C17.7319 37.432 16.8262 33.5325 19.0509 30.8091C21.2877 28.0708 25.3921 28.0708 29.3628 28.0708C31.8914 28.0693 34.7558 28.0693 35.8347 27.2274C36.9029 26.3943 37.5335 23.6768 38.0912 21.2786C38.9741 17.4816 39.8859 13.5553 43.1332 12.0258C46.3213 10.5186 49.9986 12.2442 53.5529 13.9147C55.8536 14.9957 58.4505 16.2283 59.8501 15.912C61.1326 15.6283 62.9606 13.3861 64.4286 11.5833C66.9343 8.51106 69.5252 5.33325 73.1889 5.33325C76.8541 5.33325 79.4435 8.51106 81.9493 11.5849C83.4172 13.3862 85.2437 15.627 86.5262 15.9121C87.9227 16.2254 90.5227 14.9944 92.8203 13.9148C96.3716 12.2428 100.046 10.5143 103.243 12.0245C106.489 13.554 107.402 17.4802 108.284 21.2787C108.841 23.6755 109.473 26.3943 110.54 27.226C111.611 28.0621 114.45 28.068 116.966 28.068C116.995 28.0665 117.024 28.0695 117.052 28.068C121.01 28.068 125.096 28.0769 127.324 30.8048C129.55 33.5282 128.644 37.4292 127.768 41.201C127.207 43.62 126.569 46.3612 127.176 47.5937C127.76 48.7743 130.314 49.9741 132.568 51.0329C136.175 52.7273 139.906 54.4795 140.711 57.9424C141.489 61.2895 138.964 64.3856 136.52 67.3808C134.916 69.3484 133.097 71.5788 133.097 72.9998C133.097 74.4224 134.916 76.6514 136.522 78.6189C138.964 81.6126 141.491 84.7072 140.713 88.0543C139.906 91.5172 136.177 93.2695 132.569 94.9638C130.316 96.0226 127.761 97.2225 127.178 98.4045C126.572 99.6355 127.208 102.377 127.771 104.796C128.647 108.568 129.553 112.467 127.327 115.192C125.092 117.929 120.986 117.929 117.015 117.929C114.488 117.93 111.622 117.93 110.543 118.772C109.476 119.604 108.846 122.321 108.288 124.72C107.405 128.517 106.493 132.444 103.245 133.975C100.052 135.472 96.3776 133.754 92.8248 132.085C90.5242 131.004 87.8999 129.767 86.5292 130.088C85.2452 130.371 83.4172 132.615 81.9477 134.416C79.4435 137.489 76.8526 140.667 73.1889 140.667ZM59.8 121.96C60.2691 121.959 60.7368 122.009 61.1946 122.109C63.8787 122.709 65.9251 125.234 67.9049 127.676C69.4397 129.569 71.3501 131.925 72.6681 131.925C73.9875 131.925 75.8978 129.569 77.4326 127.676C79.4125 125.233 81.4589 122.708 84.1444 122.109C86.9193 121.485 89.9435 122.915 92.8672 124.298C95.0298 125.321 97.7267 126.592 98.8067 126.074C99.9475 125.534 100.618 122.631 101.156 120.298C101.868 117.222 102.603 114.041 104.787 112.326C106.985 110.601 110.319 110.601 113.541 110.599C115.963 110.599 118.977 110.599 119.755 109.641C120.525 108.696 119.86 105.818 119.326 103.508C118.61 100.41 117.871 97.2083 119.099 94.7069C120.305 92.2501 123.281 90.8435 126.161 89.4828C128.366 88.441 131.111 87.1444 131.396 85.9104C131.658 84.7795 129.812 82.5037 128.33 80.6765C126.292 78.1654 124.186 75.5693 124.186 72.7392C124.186 69.9091 126.292 67.3131 128.328 64.802C129.812 62.9733 131.657 60.6976 131.395 59.5653C131.11 58.3313 128.365 57.0347 126.16 55.9929C123.28 54.6322 120.304 53.2255 119.098 50.7702C117.869 48.2675 118.609 45.0655 119.323 41.9681C119.858 39.6576 120.522 36.7802 119.754 35.8331C118.972 34.8707 116.017 34.8819 113.499 34.8763C110.289 34.8763 106.974 34.8694 104.786 33.1507C102.6 31.4363 101.865 28.2538 101.154 25.1773C100.614 22.8458 99.9433 19.9434 98.8053 19.403C97.7112 18.8891 95.027 20.1551 92.8644 21.1787C89.9394 22.5603 86.9236 23.9851 84.1417 23.3695C81.4575 22.7692 79.4111 20.2442 77.4327 17.8027C75.8979 15.91 73.9876 13.5535 72.6682 13.5535C71.3488 13.5535 69.4384 15.91 67.9036 17.8041C65.9238 20.2456 63.8774 22.7706 61.1932 23.3695C58.4255 23.9879 55.3927 22.5617 52.469 21.1801C50.3078 20.1579 47.6123 18.8863 46.5296 19.4044C45.3901 19.9448 44.7198 22.8458 44.1813 25.1773C43.4699 28.2552 42.7343 31.4376 40.5477 33.1521C38.351 34.8777 35.0177 34.8777 31.795 34.879C29.3731 34.879 26.3587 34.879 25.5793 35.8372C24.8126 36.7829 25.4772 39.6589 26.0115 41.9695C26.7272 45.0669 27.467 48.2688 26.2382 50.7715C25.0322 53.2283 22.0561 54.635 19.1764 55.9957C16.9713 57.0375 14.2262 58.3341 13.9413 59.5666C13.6791 60.6989 15.5243 62.9746 17.0081 64.8019C19.0447 67.3132 21.1506 69.9092 21.1506 72.7393C21.1506 75.5693 19.0447 78.1654 17.0082 80.6765C15.5258 82.5052 13.6792 84.7809 13.9414 85.9146C14.2262 87.1472 16.9713 88.4438 19.1765 89.4855C22.0563 90.8462 25.0338 92.2529 26.2398 94.7097C27.4685 97.211 26.7287 100.414 26.013 103.51C25.4788 105.822 24.8141 108.698 25.5822 109.645C26.3659 110.608 29.4497 110.651 31.8376 110.602C35.0476 110.602 38.3624 110.609 40.5505 112.328C42.7372 114.042 43.4727 117.225 44.1841 120.303C44.7226 122.634 45.393 125.535 46.531 126.076C47.6264 126.587 50.3106 125.321 52.4732 124.3C54.7178 123.015 57.2159 122.218 59.8 121.96Z" fill="#0084FF"/>
<path d="M73.189 140.264C69.5471 140.264 66.9731 137.105 64.4823 134.051C63.023 132.26 61.2059 130.031 59.931 129.748C58.5459 129.435 55.9598 130.658 53.6744 131.733C50.1413 133.392 46.4873 135.106 43.3136 133.612C40.0871 132.092 39.1808 128.189 38.3032 124.414C37.7489 122.031 37.122 119.329 36.0616 118.501C34.9951 117.67 32.1735 117.664 29.672 117.664C29.6439 117.666 29.6156 117.666 29.5874 117.664C25.6539 117.664 21.5922 117.655 19.3762 114.945C17.1633 112.236 18.0636 108.359 18.9352 104.609C19.4941 102.205 20.127 99.4798 19.5228 98.2561C18.9427 97.0796 16.4035 95.8884 14.1634 94.8359C10.5774 93.1516 6.87055 91.4098 6.06845 87.969C5.29506 84.6403 7.80557 81.5626 10.2345 78.5853C11.8296 76.6294 13.6377 74.4137 13.6377 72.9997C13.6377 71.5856 11.8296 69.3699 10.2345 67.4141C7.80555 64.4382 5.29511 61.3605 6.06845 58.0348C6.86903 54.5925 10.5774 52.8507 14.1634 51.1664C16.4035 50.1139 18.9427 48.9212 19.5228 47.7462C20.127 46.5225 19.4926 43.7976 18.9337 41.3929C18.0621 37.6435 17.1618 33.7672 19.3732 31.06C21.5967 28.3381 25.6767 28.3381 29.6237 28.3381C32.1372 28.3366 34.9846 28.3366 36.0571 27.4996C37.119 26.6715 37.7458 23.9702 38.3002 21.5863C39.1778 17.8119 40.0841 13.909 43.3121 12.3886C46.4812 10.8903 50.1367 12.6056 53.6699 14.2662C55.9568 15.3408 58.5383 16.566 59.9295 16.2516C61.2044 15.9697 63.0216 13.7407 64.4808 11.9487C66.9716 8.89473 69.5471 5.73584 73.189 5.73584C76.8324 5.73584 79.4063 8.89473 81.8972 11.9503C83.3564 13.7408 85.172 15.9683 86.4469 16.2517C87.8351 16.5632 90.4196 15.3395 92.7035 14.2663C96.2336 12.6042 99.8861 10.886 103.064 12.3872C106.291 13.9076 107.199 17.8105 108.075 21.5864C108.629 23.9689 109.257 26.6716 110.318 27.4983C111.383 28.3294 114.204 28.3353 116.706 28.3353C116.735 28.3338 116.763 28.3367 116.79 28.3353C120.725 28.3353 124.787 28.3441 127.002 31.0557C129.215 33.7629 128.314 37.6407 127.443 41.3901C126.885 43.7947 126.251 46.5196 126.855 47.7448C127.435 48.9183 129.974 50.111 132.215 51.1635C135.801 52.8477 139.509 54.5895 140.309 58.0318C141.083 61.359 138.572 64.4367 136.143 67.4141C134.548 69.3699 132.74 71.5871 132.74 72.9997C132.74 74.4138 134.548 76.6294 136.145 78.5853C138.572 81.5611 141.084 84.6373 140.311 87.9645C139.509 91.4068 135.802 93.1487 132.216 94.8329C129.976 95.8854 127.437 97.0781 126.857 98.2531C126.254 99.4768 126.887 102.202 127.446 104.606C128.317 108.356 129.218 112.232 127.005 114.941C124.783 117.661 120.701 117.661 116.754 117.661C114.242 117.663 111.393 117.663 110.321 118.5C109.26 119.326 108.634 122.028 108.079 124.412C107.202 128.186 106.295 132.09 103.066 133.612C99.8921 135.1 96.2397 133.392 92.708 131.733C90.4211 130.658 87.8124 129.429 86.4499 129.748C85.1735 130.03 83.3563 132.26 81.8956 134.051C79.4063 137.105 76.8309 140.264 73.189 140.264ZM59.8798 121.668C60.346 121.667 60.811 121.717 61.266 121.817C63.9342 122.413 65.9684 124.923 67.9364 127.35C69.4621 129.232 71.3611 131.574 72.6712 131.574C73.9828 131.574 75.8818 129.232 77.4074 127.35C79.3755 124.922 81.4097 122.412 84.0793 121.817C86.8376 121.196 89.8439 122.618 92.7501 123.993C94.8999 125.009 97.5807 126.273 98.6542 125.758C99.7883 125.221 100.455 122.336 100.99 120.017C101.697 116.959 102.428 113.796 104.599 112.092C106.784 110.377 110.098 110.377 113.301 110.375C115.709 110.375 118.705 110.375 119.478 109.423C120.243 108.483 119.583 105.623 119.052 103.326C118.34 100.247 117.605 97.064 118.826 94.5775C120.025 92.1354 122.983 90.7371 125.846 89.3845C128.038 88.3489 130.767 87.06 131.05 85.8334C131.311 84.7092 129.475 82.447 128.001 80.6306C125.976 78.1344 123.882 75.5538 123.882 72.7406C123.882 69.9273 125.976 67.3468 128 64.8506C129.475 63.0328 131.309 60.7706 131.048 59.645C130.765 58.4184 128.037 57.1295 125.845 56.0939C122.982 54.7414 120.024 53.343 118.825 50.9023C117.603 48.4145 118.339 45.2316 119.049 42.1527C119.58 39.8558 120.24 36.9956 119.477 36.0542C118.699 35.0975 115.762 35.1086 113.259 35.103C110.068 35.103 106.773 35.0961 104.598 33.3877C102.425 31.6835 101.694 28.52 100.987 25.4617C100.45 23.1442 99.7841 20.259 98.6529 19.7218C97.5653 19.211 94.8971 20.4694 92.7474 21.487C89.8397 22.8604 86.8419 24.2767 84.0765 23.6647C81.4084 23.068 79.3741 20.558 77.4075 18.1311C75.8819 16.2497 73.9829 13.9072 72.6713 13.9072C71.3598 13.9072 69.4608 16.2496 67.9351 18.1325C65.9671 20.5594 63.9328 23.0694 61.2647 23.6647C58.5134 24.2794 55.4987 22.8618 52.5924 21.4884C50.4441 20.4723 47.7646 19.2082 46.6883 19.7232C45.5557 20.2604 44.8893 23.1442 44.354 25.4617C43.6468 28.5214 42.9157 31.6848 40.742 33.3891C38.5584 35.1044 35.245 35.1044 32.0415 35.1058C29.6339 35.1058 26.6375 35.1058 25.8627 36.0583C25.1006 36.9983 25.7613 39.8572 26.2924 42.154C27.0038 45.233 27.7392 48.4158 26.5178 50.9037C25.3189 53.3458 22.3606 54.7441 19.498 56.0967C17.306 57.1323 14.5772 58.4212 14.294 59.6464C14.0334 60.7719 15.8676 63.0341 17.3425 64.8505C19.367 67.3468 21.4604 69.9274 21.4604 72.7406C21.4604 75.5538 19.367 78.1344 17.3426 80.6307C15.8691 82.4484 14.0335 84.7106 14.2941 85.8376C14.5773 87.0628 17.306 88.3517 19.4981 89.3872C22.3607 90.7398 25.3205 92.1381 26.5193 94.5803C27.7407 97.0667 27.0053 100.251 26.2939 103.329C25.7628 105.627 25.1021 108.486 25.8656 109.427C26.6447 110.384 29.7101 110.427 32.0838 110.378C35.2747 110.378 38.5697 110.385 40.7448 112.094C42.9185 113.798 43.6497 116.961 44.3568 120.021C44.8921 122.338 45.5585 125.222 46.6897 125.759C47.7787 126.268 50.4468 125.009 52.5966 123.994C54.8278 122.718 57.3111 121.924 59.8798 121.668Z" fill="#0084FF"/>
<path d="M73.1889 132.208C69.9832 132.208 67.7175 129.428 65.5249 126.739C64.2404 125.163 62.6409 123.201 61.5187 122.952C60.2995 122.676 58.0231 123.754 56.0114 124.7C52.9014 126.16 49.685 127.669 46.8915 126.354C44.0514 125.015 43.2536 121.58 42.4811 118.257C41.9931 116.159 41.4413 113.781 40.5079 113.052C39.5692 112.321 37.0854 112.315 34.8836 112.315C34.8588 112.317 34.8339 112.317 34.8091 112.315C31.3467 112.315 27.7714 112.308 25.8208 109.922C23.8729 107.538 24.6654 104.124 25.4326 100.824C25.9245 98.7075 26.4816 96.3089 25.9498 95.2317C25.4392 94.1961 23.2041 93.1476 21.2323 92.2211C18.0757 90.7385 14.8128 89.2053 14.1068 86.1766C13.426 83.2466 15.6359 80.5374 17.7739 77.9167C19.1779 76.1951 20.7696 74.2447 20.7696 73C20.7696 71.7553 19.178 69.805 17.7739 68.0834C15.6358 65.4639 13.4261 62.7548 14.1068 59.8274C14.8115 56.7973 18.0757 55.2641 21.2323 53.7815C23.2041 52.855 25.4392 51.8052 25.9498 50.7709C26.4817 49.6938 25.9232 47.2952 25.4313 45.1785C24.6641 41.8782 23.8716 38.4661 25.8182 36.0831C27.7754 33.6871 31.3667 33.6871 34.8411 33.6871C37.0536 33.6858 39.5599 33.6858 40.504 32.9491C41.4387 32.2202 41.9905 29.8424 42.4785 27.7439C43.251 24.4215 44.0487 20.9861 46.8902 19.6478C49.6797 18.3289 52.8974 19.8388 56.0074 21.3005C58.0205 22.2464 60.2928 23.3249 61.5174 23.0481C62.6396 22.8 64.2392 20.8379 65.5236 19.2605C67.7161 16.5723 69.9832 13.7917 73.1889 13.7917C76.396 13.7917 78.6617 16.5723 80.8542 19.262C82.1387 20.8381 83.7369 22.7988 84.8591 23.0482C86.081 23.3224 88.356 22.2452 90.3664 21.3006C93.4737 19.8376 96.6888 18.3251 99.4864 19.6466C102.326 20.9849 103.126 24.4203 103.897 27.7441C104.385 29.8412 104.938 32.2202 105.871 32.9479C106.809 33.6794 109.292 33.6846 111.494 33.6846C111.52 33.6833 111.545 33.6859 111.569 33.6846C115.032 33.6846 118.608 33.6924 120.557 36.0793C122.505 38.4623 121.712 41.8757 120.945 45.176C120.455 47.2926 119.896 49.6912 120.428 50.7697C120.939 51.8026 123.174 52.8525 125.146 53.7789C128.302 55.2615 131.566 56.7947 132.271 59.8248C132.952 62.7535 130.742 65.4626 128.604 68.0833C127.2 69.805 125.608 71.7566 125.608 73C125.608 74.2448 127.2 76.1951 128.605 77.9167C130.742 80.5361 132.953 83.244 132.272 86.1727C131.566 89.2027 128.303 90.736 125.147 92.2185C123.175 93.1449 120.94 94.1948 120.429 95.2291C119.899 96.3062 120.456 98.7048 120.948 100.822C121.715 104.122 122.508 107.534 120.56 109.918C118.604 112.313 115.011 112.313 111.537 112.313C109.326 112.314 106.818 112.314 105.874 113.051C104.94 113.779 104.389 116.156 103.901 118.255C103.128 121.577 102.33 125.014 99.4876 126.354C96.6941 127.663 93.479 126.16 90.3704 124.699C88.3573 123.754 86.061 122.671 84.8617 122.952C83.7382 123.2 82.1386 125.163 80.8529 126.739C78.6617 129.428 76.3947 132.208 73.1889 132.208ZM61.4737 115.84C61.8841 115.839 62.2933 115.883 62.6939 115.971C65.0425 116.496 66.8331 118.705 68.5654 120.841C69.9084 122.498 71.58 124.56 72.7332 124.56C73.8877 124.56 75.5592 122.498 76.9022 120.841C78.6345 118.704 80.4251 116.495 82.775 115.971C85.203 115.425 87.8492 116.676 90.4074 117.886C92.2997 118.781 94.6595 119.893 95.6044 119.44C96.6027 118.967 97.1892 116.428 97.6604 114.386C98.2829 111.694 98.9265 108.911 100.837 107.411C102.761 105.901 105.677 105.901 108.497 105.9C110.616 105.9 113.254 105.9 113.935 105.061C114.608 104.234 114.026 101.716 113.559 99.6943C112.933 96.9841 112.285 94.1824 113.361 91.9937C114.416 89.844 117.02 88.6132 119.54 87.4226C121.469 86.511 123.871 85.3765 124.12 84.2967C124.35 83.3072 122.734 81.3159 121.437 79.7171C119.654 77.5199 117.811 75.2483 117.811 72.772C117.811 70.2956 119.654 68.0241 121.436 65.8269C122.734 64.2268 124.349 62.2355 124.119 61.2447C123.87 60.165 121.468 59.0305 119.538 58.1189C117.019 56.9283 114.415 55.6975 113.359 53.5491C112.284 51.3592 112.931 48.5575 113.556 45.8473C114.024 43.8255 114.606 41.3078 113.933 40.4791C113.249 39.637 110.663 39.6468 108.46 39.6419C105.651 39.6419 102.751 39.6358 100.836 38.132C98.924 36.6319 98.2805 33.8473 97.658 31.1553C97.1855 29.1153 96.599 26.5756 95.6032 26.1028C94.6459 25.6531 92.2973 26.7608 90.405 27.6565C87.8456 28.8654 85.2068 30.1121 82.7726 29.5735C80.424 29.0482 78.6333 26.8388 76.9023 24.7026C75.5593 23.0464 73.8877 20.9845 72.7333 20.9845C71.5788 20.9845 69.9072 23.0464 68.5643 24.7038C66.8319 26.84 65.0413 29.0495 62.6927 29.5735C60.2709 30.1146 57.6172 28.8667 55.059 27.6578C53.168 26.7633 50.8094 25.6507 49.862 26.104C48.865 26.5768 48.2785 29.1153 47.8072 31.1553C47.1847 33.8485 46.5412 36.6331 44.6278 38.1332C42.7058 39.6431 39.7891 39.6431 36.9693 39.6443C34.8501 39.6443 32.2125 39.6443 31.5305 40.4827C30.8596 41.3102 31.4412 43.8267 31.9087 45.8484C32.5349 48.5587 33.1822 51.3604 32.1071 53.5502C31.0518 55.6999 28.4477 56.9308 25.928 58.1214C23.9985 59.0329 21.5965 60.1675 21.3472 61.2459C21.1178 62.2367 22.7324 64.228 24.0307 65.8268C25.8127 68.0242 27.6554 70.2957 27.6554 72.772C27.6554 75.2483 25.8127 77.5199 24.0308 79.7171C22.7337 81.3172 21.1179 83.3085 21.3473 84.3004C21.5966 85.3789 23.9985 86.5135 25.9281 87.425C28.4478 88.6156 31.0532 89.8464 32.1084 91.9961C33.1835 94.1848 32.5362 96.9877 31.91 99.6968C31.4425 101.72 30.861 104.236 31.533 105.065C32.2188 105.907 34.9171 105.945 37.0066 105.902C39.8153 105.902 42.7157 105.908 44.6303 107.412C46.5437 108.912 47.1872 111.697 47.8097 114.39C48.2809 116.43 48.8675 118.968 49.8632 119.441C50.8218 119.888 53.1704 118.781 55.0627 117.887C57.0267 116.764 59.2126 116.066 61.4737 115.84Z" fill="#00E0FF"/>
</svg>
